<svg width="152" height="56" viewBox="0 0 152 56" fill="none" xmlns="http://www.w3.org/2000/svg">
<path d="M0 20.791L6.749 32.18L9.44 29.615L2.097 18.661L0 20.791Z" fill="url(#paint0_linear_2_160)"/>
<path d="M100.164 11.841L99.903 13.341L103.13 12.3L102.73 10.461L100.164 11.841Z" fill="#0071B9"/>
<path d="M81.368 1.588L70.985 13.497L74.006 12.628L83.891 0.285999L81.368 1.588Z" fill="url(#paint1_linear_2_160)"/>
<path d="M136.912 17.867L139.461 16.509L138.733 22.891L136.912 17.867Z" fill="#1D2C5E"/>
<path d="M121.072 21.96L123.337 22.424L126.228 21.024L123.719 20.088L121.072 21.96Z" fill="#1D2C5E"/>
<path d="M42.97 15.184L43.332 22.584L46.494 21.307L45.548 13.807L42.97 15.184Z" fill="url(#paint2_linear_2_160)"/>
<path d="M123.524 12.976L120.974 14.349L121.067 21.959L123.628 20.646L124.428 16.963L123.524 12.976Z" fill="url(#paint3_linear_2_160)"/>
<path d="M123.174 22.444L120.374 47.335L124.853 46.451L125.73 21.101L123.174 22.444Z" fill="#312370"/>
<path d="M128.659 48.529L128.739 51.904L137.339 54.644L139.898 53.288L131.461 46.751L122.914 46L120.373 47.335L128.659 48.529Z" fill="#21386E"/>
<path d="M96.76 42.592L98.873 41.454L100.22 43.943L102.211 42.849L102.611 46.13L115.111 48.347L117.611 46.973L100.373 36.473L88.145 38.573L85.76 40.84L96.76 42.592Z" fill="#21386E"/>
<path d="M92.78 11.967L90.28 13.344L85.759 40.831L88.291 39.515L92.631 24.082L92.78 11.967Z" fill="url(#paint4_linear_2_160)"/>
<path d="M72.81 15.651L70.816 16.713L70.984 17.378L75.729 14.364L73.656 12.139L70.986 13.494L72.81 15.651Z" fill="#1D2C5E"/>
<path d="M78.2579 48.119L57.8719 38.019L60.4309 36.084L80.7979 46.749L78.2579 48.119Z" fill="#21386E"/>
<path d="M59.79 10.536L56.701 16.394L59.965 15.406L62.321 9.163L59.79 10.536Z" fill="#1D2C5E"/>
<path d="M31.7699 34.738L29.1639 36.527C29.4848 38.195 29.9076 39.8418 30.4299 41.458C30.98 42.8308 31.8049 44.0766 32.8539 45.119C33.9583 46.1948 35.3114 46.9811 36.7929 47.408C38.3022 47.8054 39.8787 47.878 41.4181 47.6208C42.9575 47.3636 44.4248 46.7825 45.7229 45.916C46.5503 45.3894 47.3302 44.7918 48.0539 44.13C45.3069 45.796 31.7699 34.738 31.7699 34.738Z" fill="url(#paint5_linear_2_160)"/>
<path d="M45.718 21.976L48.097 48.217L57.816 46.779L60.416 45.416L48.355 20.403L45.874 21.239L43.333 22.579L45.718 21.976Z" fill="#1D2C5E"/>
<path d="M9.28397 31.09L20.142 55.716L30.458 52.388L32.977 50.695L11.569 28.292L8.88997 29.898L6.74597 32.177L9.28397 31.09Z" fill="url(#paint6_linear_2_160)"/>
<path d="M116.899 42.709L117.045 43.918C117.935 43.8492 118.814 43.6815 119.666 43.418C120.987 42.9633 122.24 42.3297 123.389 41.535C123.101 41.635 118.361 42.868 116.899 42.709Z" fill="#1D2C5E"/>
<path d="M80.402 36.421L80.789 38.368C82.795 38.0424 84.7143 37.3137 86.431 36.226C87.537 35.567 88.751 34.574 89.131 34.309C88.864 34.481 80.402 36.421 80.402 36.421Z" fill="#1D2C5E"/>
<path d="M22.966 53.382L22.16 51.591L11.86 28.614L11.653 28.141L11.185 28.357L10.873 28.501L9.04001 29.401C8.77001 28.948 8.32101 28.188 8.00901 27.661L3.86501 20.661L2.78101 18.833L4.57301 17.694C6.38732 16.5506 8.29198 15.5573 10.268 14.724C14.1294 13.0194 18.2918 12.1015 22.512 12.024C23.7363 12.0193 24.9588 12.1197 26.166 12.324C28.0115 12.516 29.7851 13.1432 31.341 14.154C33.5149 15.3625 35.2329 17.2502 36.232 19.528C37.0432 21.5129 37.2002 23.7048 36.68 25.785L36.38 27.104L37.48 26.31C38.2232 25.7715 39.0225 25.3152 39.864 24.949C41.2793 24.341 42.8026 24.0244 44.343 24.018C45.7282 24.0086 47.0994 24.295 48.365 24.858L49.165 25.216L49.085 24.345L48.738 20.58L48.682 19.98L48.101 20.131L46.357 20.583L46.051 14.173L58.827 10.091L58.727 15.073L59.689 15.32L62.479 9.973L70.836 17.385L71.184 17.695L71.524 17.375C72.6996 16.2796 74.0667 15.4097 75.557 14.809L76.197 14.548L75.759 14.013L74.244 12.181L83.839 1.122L88.864 8.622L81.173 12.754L79.465 13.673L81.404 13.714C83.1457 13.7235 84.8638 14.1177 86.4354 14.8685C88.007 15.6193 89.3932 16.7081 90.495 18.057L91.295 19.045L91.811 19.679L90.954 20.589L90.382 21.196L88.46 23.246L88.103 23.627L88.49 23.976L90.29 25.598L90.99 26.225L91.139 25.3L91.83 21.021L92.007 19.921L92.013 19.927L92.195 18.805L93.227 12.488H102.869L102.942 12.062L103.122 10.98H111.416L113.425 23.67L113.556 24.492L114.229 24.003C115.053 23.4061 115.952 22.9203 116.903 22.558C118.151 22.0807 119.475 21.8337 120.811 21.829C122.34 21.82 123.849 22.178 125.211 22.873C125.258 22.9076 125.308 22.9361 125.362 22.958L125.985 23.208L126.058 22.539L126.208 21.156L126.257 20.703L125.811 20.603L124.129 20.227L124.047 13.612L136.865 16.441L137.828 21.201L138.828 21.221L139.821 17.121L150.513 19.721L139.583 52.654L131.764 50.199L131.708 47.166L131.7 46.731L131.269 46.67L123.469 45.57L123.911 41.604L124.011 40.66L123.167 41.093C122.793 41.2851 122.408 41.4551 122.014 41.602C120.774 42.0774 119.459 42.3234 118.131 42.328C117.756 42.3283 117.381 42.3076 117.008 42.266L116.342 42.191L116.442 42.853L116.991 46.341L105.608 44.333L105.008 39.157L104.816 37.498L104.049 38.981L102.739 41.508L100.326 37.054L99.601 35.716L99.372 37.216L98.846 40.664L88.869 39.094L89.643 34.362L89.82 33.277L88.877 33.841C87.0925 34.8799 85.1594 35.6393 83.145 36.093C82.3514 36.2854 81.5439 36.4155 80.73 36.482L80.262 36.521V45.921L60.615 36.211L59.877 35.847V36.67L59.89 44.97L51.106 46.264L50.737 42.276L50.637 41.209L49.871 41.96C48.7511 43.0684 47.4329 43.9565 45.985 44.578C44.5809 45.1845 43.0685 45.5002 41.539 45.506C40.0991 45.5166 38.6753 45.2032 37.373 44.589C36.2007 44.0231 35.1643 43.2109 34.3346 42.2079C33.5048 41.2048 32.9012 40.0346 32.565 38.777C32.214 37.5272 32.1181 36.2196 32.283 34.932L32.456 33.518L31.425 34.5C30.6892 35.1982 29.9115 35.8508 29.096 36.454L28.818 36.654L28.906 36.988L31.865 48.347L32.388 50.363L30.407 50.993L24.831 52.781L22.966 53.381V53.382ZM25.466 22.889C25.1699 22.8894 24.8744 22.9162 24.583 22.969L24.204 23.042L23.644 23.15L23.813 23.695L23.923 24.05L25.516 29.263L25.675 29.763L25.912 30.515L26.501 29.991L26.892 29.643C27.5874 29.1246 28.1218 28.4199 28.4332 27.6104C28.7447 26.8009 28.8206 25.9198 28.652 25.069C28.5639 24.6677 28.3813 24.2932 28.1194 23.9767C27.8574 23.6601 27.5237 23.4107 27.146 23.249C26.6203 23.0039 26.046 22.8808 25.466 22.889ZM68.177 23.06L67.177 24.029L64.554 26.578L63.983 27.133L64.726 27.42L67.539 28.506L68.403 28.839L68.225 27.931C67.9947 26.7834 67.9327 25.6084 68.041 24.443L68.173 23.06H68.177ZM79.63 20.16C78.9481 20.1635 78.2789 20.344 77.6877 20.6838C77.0965 21.0236 76.6036 21.511 76.2573 22.0984C75.911 22.6858 75.7231 23.3531 75.712 24.0349C75.7009 24.7167 75.867 25.3896 76.194 25.988L76.408 26.388L76.752 27.029L77.236 26.487L77.547 26.142L81.394 21.749L81.694 21.401L82.179 20.843L81.487 20.587L81.056 20.428C80.601 20.2498 80.1167 20.1582 79.628 20.158L79.63 20.16Z" fill="#FFCB05"/>
<path d="M85.515 26.667C85.4771 26.7018 85.4435 26.7411 85.415 26.784C85.454 26.749 85.491 26.718 85.531 26.684L85.515 26.667Z" fill="#7D7F68"/>
<path d="M88.833 23.595L90.754 21.545L90.097 22.245L90.116 22.157L89.535 22.77L87.615 24.814L89.415 26.432L89.741 24.417L90.641 25.217L88.833 23.595Z" fill="#7D7F68"/>
<path d="M88.8311 23.595L90.6311 25.216L91.321 20.938L90.75 21.545L88.8311 23.595Z" fill="#7D7F68"/>
<path d="M64.9139 26.942L64.9429 26.954L64.9139 26.942Z" fill="#7D7F68"/>
<path d="M75.551 28.722C75.705 28.877 75.563 28.766 75.735 28.884L76.91 28.055C76.7326 27.9331 76.5635 27.7995 76.404 27.655C74.699 26.101 75.142 22.606 76.248 20.693C75.6248 21.1387 75.1054 21.7141 74.7257 22.3796C74.346 23.0451 74.115 23.785 74.0485 24.5483C73.982 25.3117 74.0816 26.0803 74.3404 26.8015C74.5993 27.5227 75.0112 28.1792 75.548 28.726" fill="#C7A008"/>
<path d="M89.7389 30.679C87.6781 32.3415 85.253 33.4926 82.6619 34.038C82.0437 34.1832 81.4162 34.2858 80.7839 34.345C76.1439 34.801 72.2509 32.67 70.7739 29.215C70.5903 28.7978 70.4454 28.3647 70.3409 27.921C70.0044 26.6407 69.9497 25.3026 70.1807 23.9991C70.4117 22.6955 70.9229 21.4577 71.6789 20.371C71.8209 20.171 71.9709 19.984 72.1279 19.792C72.0549 19.855 71.9789 19.909 71.9179 19.968C71.3719 20.4505 70.8831 20.9941 70.4609 21.588C69.7043 22.6736 69.1931 23.911 68.9629 25.2141C68.7328 26.5172 68.7891 27.8548 69.1279 29.134C69.2292 29.5766 69.3715 30.0088 69.5529 30.425C71.0309 33.889 74.9239 36.018 79.5599 35.565C80.1936 35.5041 80.8222 35.3985 81.4409 35.249C84.0324 34.7059 86.4584 33.5565 88.5199 31.895C89.0036 31.4964 89.4628 31.069 89.8949 30.615L89.8539 30.576C89.8099 30.614 89.7769 30.647 89.7379 30.676" fill="#C7A008"/>
<path d="M57.04 21.88L62.224 14.595L62.014 14.401L57.014 21.427L57.04 21.88Z" fill="#C7A008"/>
<path d="M91.325 20.933L90.635 25.211L89.735 24.411L89.414 26.433L87.614 24.815L89.534 22.771L90.115 22.158L90.096 22.246L90.753 21.546L91.325 20.933Z" fill="#C7A008"/>
<path d="M84.921 8.938L86.736 8.159L83.421 3.901L82.334 5.42L84.921 8.938Z" fill="#C7A008"/>
<path d="M34.66 19.488C26.281 9.281 11.183 14.767 5.76001 19.542L5.97201 19.908C7.24631 19.1792 8.5645 18.53 9.91901 17.964C15.309 15.664 20.448 14.987 24.567 15.708C26.1126 15.8564 27.6006 16.3705 28.908 17.208C30.7236 18.1842 32.1615 19.7382 32.994 21.624C34.455 24.984 33.168 29.453 29.726 33.193C34.046 29.232 36.999 25.442 34.66 19.488Z" fill="#C7A008"/>
<path d="M51.7551 31.38C51.719 31.1929 51.6726 31.008 51.6161 30.826C51.1807 29.2143 50.1824 27.8119 48.8021 26.873C47.5951 26.1134 46.2164 25.6695 44.7929 25.5821C43.3695 25.4947 41.9469 25.7667 40.6561 26.373C39.1084 27.0523 37.7335 28.0711 36.6331 29.354C37.476 28.6305 38.4233 28.0385 39.4431 27.598C40.733 26.9899 42.1553 26.7162 43.5788 26.802C45.0024 26.8878 46.3814 27.3304 47.5891 28.089C48.9665 29.0309 49.9645 30.4315 50.4051 32.041C50.4581 32.223 50.5001 32.413 50.5411 32.605C50.672 33.2517 50.7267 33.9116 50.7041 34.571C50.6051 36.5928 49.9126 38.5405 48.7131 40.171C48.5191 40.437 48.3131 40.685 48.1031 40.931C48.7868 40.3463 49.3979 39.6815 49.923 38.951C51.1294 37.3235 51.8255 35.3745 51.923 33.351C51.9502 32.6918 51.8954 32.0317 51.7601 31.386" fill="#C7A008"/>
<path d="M43.5039 28.889C43.4919 28.908 44.7199 27.673 44.7039 27.673C44.2257 27.6794 43.7596 27.8245 43.3623 28.0908C42.965 28.3571 42.6536 28.7331 42.4659 29.173C42.7914 29.0162 43.1422 28.919 43.5019 28.886" fill="#C7A008"/>
<path d="M46.396 30.659C46.5522 31.1715 46.5145 31.7235 46.29 32.21C46.8328 32.0054 47.2751 31.5982 47.5237 31.0741C47.7723 30.5499 47.8079 29.9498 47.623 29.4C47.66 29.456 46.352 30.657 46.396 30.663" fill="#C7A008"/>
<path d="M39.41 31.674C39.41 30.923 40.695 29.102 41.096 28.495C40.2861 28.9309 39.597 29.5611 39.0909 30.3291C38.5847 31.0971 38.2772 31.9788 38.196 32.895C38.2406 34.0566 38.7419 35.1536 39.591 35.9476C40.44 36.7415 41.5681 37.1683 42.73 37.135C43.6927 37.0857 44.6277 36.7961 45.4497 36.2927C46.2717 35.7893 46.9546 35.0881 47.436 34.253C46.703 34.735 44.836 35.89 43.861 35.89C43.2911 35.9088 42.7231 35.8143 42.19 35.612C41.6569 35.4097 41.1692 35.1036 40.7552 34.7115C40.3412 34.3193 40.0091 33.8489 39.7782 33.3275C39.5473 32.8061 39.4222 32.2441 39.41 31.674Z" fill="#C7A008"/>
<path d="M56.787 33.822L56.819 43.334L58.329 43.42L58.029 32.577L56.787 33.822Z" fill="#C7A008"/>
<path d="M48.1219 15.716L48.1529 16.561L55.3069 14.431L55.8369 23.541L57.0309 21.868L56.7759 12.726L48.1219 15.716Z" fill="#C7A008"/>
<path d="M69.749 18.978L63.029 12.811L62.229 14.595L68.143 20.152L69.749 18.978Z" fill="#C7A008"/>
<path d="M68.7269 30.472L60.8369 27.863L59.6899 29.077L67.5499 32.222C68.4706 33.9375 69.8316 35.3769 71.4929 36.392C73.1726 37.4038 75.0607 38.0194 77.0139 38.192V42.074L78.2319 42.682L78.6169 36.85L68.7289 30.469L68.7269 30.472Z" fill="#C7A008"/>
<path d="M81.396 29.375C82.9886 28.9883 84.404 28.0754 85.413 26.784C84.691 27.376 81.072 28.165 80.463 28.371L79.271 29.641C79.9879 29.6514 80.7028 29.5619 81.395 29.375" fill="#C7A008"/>
<path d="M77.872 15.958C74.299 16.426 72.437 19.425 72.129 19.791C73.532 18.6287 75.1885 17.8124 76.965 17.408C81.386 16.339 85.284 17.687 87.694 20.666L89.185 19.404C87.7967 17.8473 86.007 16.7026 84.0117 16.095C82.0163 15.4874 79.8923 15.4403 77.872 15.959" fill="#C7A008"/>
<path d="M89.856 30.575C90.4083 30.2166 90.9423 29.8308 91.456 29.419L86.672 25.144C86.3306 25.6863 85.9474 26.2012 85.526 26.684L89.852 30.574L89.856 30.575Z" fill="#C7A008"/>
<path d="M114.406 42.03C109.387 37.905 109.687 29.058 112.151 26.252L109.94 12.387L105.103 13.011L104.888 14.232H108.548L110.485 26.81C109.254 28.1412 108.355 29.745 107.862 31.4902C107.37 33.2354 107.297 35.0724 107.651 36.851C107.94 38.1384 108.504 39.3482 109.305 40.3972C110.105 41.4463 111.123 42.31 112.288 42.929C112.525 43.059 112.77 43.172 113.021 43.28L113.052 43.465L114.491 43.692C114.491 43.692 114.641 42.15 114.406 42.03Z" fill="#C7A008"/>
<path d="M95.115 14.427L94.907 15.649H100.424L102.049 24.558L103.277 23.322L101.99 13.922L95.115 14.427Z" fill="#C7A008"/>
<path d="M104.559 31.723L102.778 36.323L103.219 37.523L105.766 30.516L104.559 31.723Z" fill="#C7A008"/>
<path d="M99.27 28.825L98.044 30.05L96.73 38.36L97.989 38.841L99.27 28.825Z" fill="#C7A008"/>
<path d="M124.046 26.171C124.774 26.6876 125.387 27.3495 125.846 28.115C126.222 28.7321 126.499 29.4047 126.665 30.108C126.929 31.3863 126.913 32.7066 126.618 33.9782C126.324 35.2499 125.758 36.4427 124.959 37.475C124.799 37.695 124.623 37.908 124.459 38.116C125.104 37.561 132.94 31.781 125.284 24.19C116.864 21.414 113.676 26.908 113.378 27.256C114.278 26.4871 115.302 25.8761 116.406 25.449C117.64 24.9265 118.984 24.7189 120.318 24.8448C121.652 24.9706 122.934 25.426 124.048 26.17" fill="#C7A008"/>
<path d="M119.802 26.717C119.826 26.77 121.011 25.482 121.035 25.482C119.535 25.544 118.817 26.267 118.891 26.601C118.803 26.7256 118.729 26.8598 118.671 27.001C119.03 26.8445 119.412 26.7488 119.802 26.718" fill="#C7A008"/>
<path d="M122.619 28.601C122.674 28.8087 122.699 29.0232 122.694 29.238C122.678 29.5148 122.61 29.7862 122.494 30.038C122.77 29.9711 123.028 29.8452 123.251 29.6689C123.473 29.4926 123.655 29.2701 123.783 29.0168C123.912 28.7634 123.984 28.4853 123.994 28.2015C124.005 27.9177 123.953 27.6351 123.844 27.373C123.862 27.43 122.597 28.599 122.617 28.598" fill="#C7A008"/>
<path d="M118.641 34.946C119.625 34.9073 120.586 34.6317 121.441 34.1427C122.296 33.6537 123.021 32.9657 123.554 32.137C120.105 32.844 116.479 27.101 116.843 26.537C115.512 27.5051 114.612 28.9548 114.334 30.577C114.327 31.1474 114.433 31.7137 114.646 32.2429C114.859 32.7721 115.175 33.2537 115.576 33.6599C115.976 34.0661 116.453 34.3887 116.98 34.6091C117.506 34.8296 118.07 34.9434 118.641 34.944" fill="#C7A008"/>
<path d="M137.541 49.91L138.349 50.451L148.212 20.84L140.828 19.133L140.735 20.868L146.692 22.19L137.541 49.91Z" fill="#C7A008"/>
<path d="M125.824 15.959L125.888 17.613L133.739 19.19L136.762 33.525L137.985 32.292L135.105 17.81L125.824 15.959Z" fill="#C7A008"/>
<path d="M131.865 32.294L129.704 44.519L130.949 44.919L133.095 31.088L131.865 32.294Z" fill="#C7A008"/>
<path d="M29.982 49.005L26.312 35.688L24.968 36.628L28.368 49.383L29.982 49.005Z" fill="#C7A008"/>
<path d="M29.0289 28.984C27.8671 30.2075 26.5969 31.3234 25.234 32.318L24.584 30.232L23.1619 25.659L22.262 22.559L21.3719 23.696L22.2719 26.796L23.695 31.366L24.3419 33.458C26.1818 32.2889 27.7731 30.7686 29.0249 28.984" fill="#C7A008"/>
<path d="M81.061 21.112C80.4469 20.8627 79.7749 20.7923 79.1225 20.9087C78.4701 21.0251 77.8639 21.3237 77.374 21.77C77.0962 22.0972 76.8507 22.4505 76.641 22.825C77.1329 22.4949 77.6936 22.2811 78.2805 22.2C78.8673 22.119 79.465 22.1726 80.028 22.357L81.061 21.112Z" fill="#7D7F68"/>
<path d="M27.9689 25.243C27.8864 24.9475 27.7434 24.6724 27.5491 24.4351C27.3548 24.1977 27.1133 24.0032 26.8399 23.864C26.0897 23.5861 25.2775 23.5193 24.4919 23.671C24.6259 24.132 24.7789 24.671 24.8439 24.895C25.2044 24.9373 25.5588 25.0212 25.8999 25.145C26.1536 25.2544 26.3785 25.4212 26.5569 25.6322C26.7352 25.8432 26.8623 26.0926 26.9279 26.361C27.1357 27.1908 27.0466 28.0671 26.6759 28.838C27.191 28.4073 27.5823 27.8474 27.8097 27.2157C28.0371 26.584 28.0924 25.9031 27.9699 25.243" fill="#7D7F68"/>
<path d="M29.8091 25.224C29.3091 22.518 25.7661 21.024 22.2581 22.94L23.1581 26.04L24.5811 30.617L25.2301 32.702C27.8661 31.006 30.5121 28.972 29.8091 25.224ZM26.3241 29.385C25.9411 28.135 25.1001 25.435 25.1001 25.435C25.1001 25.435 24.9351 24.857 24.7341 24.182C25.4202 24.0333 26.1357 24.1033 26.7801 24.382C27.0358 24.4886 27.2626 24.6541 27.4422 24.8651C27.6217 25.0761 27.7488 25.3265 27.8131 25.596C27.9563 26.3038 27.8921 27.0379 27.6281 27.71C27.3641 28.3822 26.9117 28.9638 26.3251 29.385H26.3241Z" fill="#3C5AA6"/>
<path d="M82.898 20.929C81.9564 20.068 80.7115 19.6162 79.4369 19.6731C78.1623 19.7301 76.9625 20.291 76.1015 21.2325C75.2404 22.174 74.7887 23.419 74.8456 24.6936C74.9025 25.9682 75.4635 27.168 76.405 28.029C76.5638 28.1748 76.7332 28.3085 76.912 28.429L83.238 21.265C83.126 21.152 83.014 21.036 82.898 20.929ZM76.925 25.968C76.6159 25.4096 76.4868 24.7695 76.5551 24.135C76.6234 23.5005 76.8859 22.9025 77.3067 22.4227C77.7275 21.9429 78.2862 21.6047 78.9064 21.4543C79.5266 21.3038 80.1781 21.3484 80.772 21.582L76.925 25.968Z" fill="#3567B0"/>
<path d="M91.351 20.144L87.851 23.519L91.179 26.508L91.351 20.144Z" fill="#1E2D5F"/>
<path d="M123.837 27.376C123.892 27.5871 123.917 27.8049 123.911 28.023C123.804 28.684 123.458 29.2827 122.939 29.706C122.42 30.1293 121.764 30.3479 121.095 30.3204C120.426 30.293 119.79 30.0214 119.308 29.557C118.825 29.0926 118.53 28.4675 118.477 27.8C118.537 27.1678 118.831 26.5808 119.302 26.1542C119.772 25.7276 120.385 25.4921 121.02 25.494C120.75 25.4353 120.476 25.4018 120.2 25.394C119.632 25.3252 119.056 25.3744 118.507 25.5385C117.959 25.7027 117.451 25.9783 117.014 26.348C116.577 26.7177 116.221 27.1737 115.969 27.6873C115.716 28.2009 115.572 28.7611 115.546 29.3328C115.52 29.9045 115.613 30.4755 115.817 31.0099C116.022 31.5443 116.335 32.0306 116.737 32.4385C117.138 32.8464 117.619 33.167 118.15 33.3803C118.682 33.5936 119.251 33.6949 119.823 33.678C120.395 33.7228 120.97 33.6535 121.515 33.4742C122.06 33.2949 122.564 33.0091 122.998 32.6335C123.432 32.2578 123.787 31.7997 124.042 31.2859C124.297 30.772 124.448 30.2126 124.485 29.64C124.509 28.836 124.283 28.0444 123.837 27.375" fill="#3466AF"/>
<path d="M47.7129 30.078C47.6351 30.7446 47.315 31.3594 46.8137 31.8056C46.3123 32.2518 45.6646 32.4983 44.9934 32.4983C44.3223 32.4983 43.6745 32.2518 43.1732 31.8056C42.6718 31.3594 42.3518 30.7446 42.2739 30.078C42.3079 29.4442 42.5776 28.8461 43.0299 28.4009C43.4823 27.9558 44.0847 27.6958 44.7189 27.672C44.4484 27.6225 44.174 27.5974 43.8989 27.597C43.0873 27.6535 42.3101 27.9467 41.6634 28.4403C41.0167 28.934 40.529 29.6064 40.2605 30.3745C39.9921 31.1425 39.9548 31.9724 40.1532 32.7614C40.3515 33.5504 40.7769 34.2639 41.3767 34.8137C41.9765 35.3634 42.7242 35.7252 43.5275 35.8543C44.3308 35.9834 45.1543 35.8741 45.8961 35.54C46.6379 35.2058 47.2654 34.6615 47.701 33.9744C48.1367 33.2872 48.3612 32.4875 48.3469 31.674C48.3452 30.873 48.0877 30.0934 47.6119 29.449C47.6784 29.652 47.7122 29.8644 47.7119 30.078" fill="url(#paint7_linear_2_160)"/>
<path d="M139.443 16.503L138.329 21.097L137.3 16.013L123.523 12.977L123.623 20.638L125.699 21.104L125.549 22.486C125.528 22.4763 125.508 22.4632 125.491 22.447C124.138 21.7702 122.657 21.3879 121.146 21.3253C119.635 21.2627 118.127 21.5213 116.723 22.084C115.73 22.4619 114.792 22.9689 113.932 23.592L111.854 10.472H102.691L102.439 11.98H92.792L91.692 18.725L90.892 17.737C89.7428 16.3307 88.2973 15.1954 86.6588 14.4122C85.0203 13.629 83.229 13.2171 81.413 13.206L89.601 8.806L83.891 0.285L73.575 12.171L75.356 14.342C73.8079 14.9661 72.3879 15.8698 71.167 17.008L62.322 9.16L59.229 15.087L59.348 9.387L45.519 13.809L45.874 21.239L48.227 20.629L48.575 24.394C47.1622 23.7966 45.6416 23.4962 44.1077 23.5115C42.5739 23.5269 41.0596 23.8575 39.659 24.483C38.7836 24.8634 37.9521 25.3375 37.179 25.897C37.7262 23.7115 37.5583 21.4081 36.7 19.325C35.6658 16.9535 33.8828 14.9864 31.624 13.725C30.0104 12.6732 28.1704 12.0193 26.255 11.817C21.47 10.981 15.724 11.839 10.068 14.249C8.06699 15.0927 6.13825 16.0984 4.30097 17.256L2.08997 18.656L3.42497 20.911L7.56797 27.911C7.56797 27.911 8.83597 30.057 8.84397 30.056L11.085 28.956L11.397 28.812L21.694 51.797L22.687 54.006L24.987 53.266L30.558 51.482L32.999 50.706L32.355 48.221L29.395 36.865C30.2288 36.2484 31.0233 35.5805 31.774 34.865C31.6033 36.2202 31.7053 37.5958 32.074 38.911C32.4294 40.2385 33.0672 41.4737 33.9437 42.5321C34.8203 43.5906 35.915 44.4474 37.153 45.044C38.5746 45.6865 40.1165 46.0195 41.6766 46.0209C43.2367 46.0223 44.7792 45.692 46.202 45.052C47.7074 44.404 49.0786 43.4805 50.245 42.329L50.665 46.852L60.413 45.418L60.398 36.671L80.785 46.745V36.99C81.6248 36.9222 82.4581 36.7884 83.277 36.59C85.3414 36.1249 87.3224 35.3462 89.151 34.281L88.295 39.52L99.286 41.25L99.886 37.295L102.757 42.595L104.512 39.214L105.153 44.766L117.614 46.966L116.953 42.774C119.175 42.9941 121.414 42.568 123.4 41.547L122.9 46.007L131.194 47.177L131.256 50.577L139.913 53.289L151.173 19.352L139.448 16.502L139.443 16.503ZM90.753 21.546L91.325 20.938L90.634 25.217L88.834 23.597L90.753 21.546ZM83.453 4.068L86.472 8.168L77.84 12.447L77.24 11.541L83.449 4.066L83.453 4.068ZM26.293 35.697L29.737 48.911L24.163 50.689L12.725 25.145C12.103 25.472 10.954 26.021 9.89897 26.538L5.75697 19.538C7.46694 18.4556 9.26495 17.5189 11.132 16.738C16.524 14.445 21.669 13.76 25.784 14.487C27.3304 14.6322 28.8203 15.1426 30.131 15.976C31.9446 16.9558 33.3807 18.5111 34.213 20.397C36.207 25.005 32.879 31.63 26.293 35.697ZM51.919 33.345C51.8229 35.3706 51.1267 37.322 49.919 38.951C48.7397 40.603 47.1324 41.9022 45.27 42.709C40.434 44.758 35.599 42.709 34.307 38.118C33.055 33.679 35.968 28.394 40.653 26.376C41.9437 25.7692 43.3663 25.497 44.7899 25.5844C46.2135 25.6718 47.5921 26.1159 48.799 26.876C50.1783 27.8142 51.1765 29.2149 51.613 30.825C51.6691 31.0071 51.7155 31.192 51.752 31.379C51.8877 32.0244 51.9438 32.684 51.919 33.343V33.345ZM78.23 42.687L58.003 32.569L58.039 43.169L52.807 43.883L52.442 39.514C53.2609 38.1766 53.8034 36.6886 54.0375 35.138C54.2716 33.5874 54.1925 32.0056 53.805 30.486C53.3618 28.8872 52.5066 27.4327 51.325 26.268L50.574 17.36L48.225 17.969L48.125 15.717L56.525 13.217L57.04 21.883L63.23 13.183L69.281 18.946L60.819 27.861L68.769 31.006C69.6888 32.7214 71.0505 34.1597 72.713 35.172C74.3899 36.1883 76.277 36.8078 78.23 36.983V42.683V42.687ZM67.73 28.031L64.913 26.943L67.537 24.397C67.4242 25.6105 67.4885 26.834 67.728 28.029L67.73 28.031ZM89.741 30.681C87.6801 32.3435 85.255 33.4946 82.664 34.04C82.0457 34.1852 81.4183 34.2878 80.786 34.347C76.146 34.803 72.253 32.672 70.776 29.217C70.5923 28.7998 70.4474 28.3667 70.343 27.923C69.9077 26.2849 69.9393 24.5577 70.4341 22.9365C70.9289 21.3154 71.8672 19.8649 73.143 18.749C74.5892 17.4926 76.3237 16.6135 78.192 16.19C82.612 15.124 86.505 16.473 88.892 19.402L80.469 28.367C81.1918 28.4294 81.92 28.3616 82.619 28.167C84.2612 27.7589 85.7143 26.8012 86.737 25.453L90.103 28.481L91.123 29.402C90.684 29.8513 90.2221 30.2776 89.739 30.679L89.741 30.681ZM107.613 42.643L105.781 30.506L103.19 37.206L99.31 28.838H99.266L97.733 38.529L91.261 37.397L92.17 31.989C92.414 31.76 92.654 31.53 92.89 31.289L94.99 29.131L92.953 27.307L95.113 14.428H101.637L103.27 23.343L105.1 13.011H109.767L111.705 25.597C110.473 26.9264 109.574 28.5287 109.081 30.2726C108.587 32.0164 108.514 33.8524 108.867 35.63C109.157 36.9192 109.721 38.1306 110.522 39.1818C111.322 40.2329 112.34 41.099 113.506 41.721C113.743 41.84 113.989 41.959 114.243 42.061L114.49 43.693L107.613 42.643ZM123.727 38.689C123.005 39.2074 122.217 39.6277 121.385 39.939C119.861 40.5449 118.198 40.7089 116.585 40.412C115.584 40.2197 114.635 39.8157 113.802 39.227C112.449 38.2383 111.499 36.7939 111.127 35.16C110.679 33.0037 111.067 30.7579 112.213 28.877C112.788 27.8982 113.506 27.0116 114.345 26.247C115.305 25.38 116.415 24.6954 117.621 24.227C118.856 23.7095 120.2 23.505 121.533 23.6317C122.867 23.7583 124.148 24.2122 125.264 24.953C125.99 25.4718 126.605 26.1303 127.073 26.89C127.446 27.5085 127.719 28.1812 127.885 28.884C128.151 30.1623 128.137 31.4832 127.844 32.7555C127.55 34.0279 126.984 35.2214 126.185 36.254C125.498 37.1913 124.667 38.0132 123.722 38.689H123.727ZM138.287 50.129L133.505 48.705L133.088 31.075L130.688 44.675L125.471 43.842L125.845 39.926C129.251 37.048 131.057 32.507 130.068 28.392C129.656 26.6177 128.717 25.0093 127.376 23.777L127.816 19.159L125.844 18.634L125.976 16.168L134.964 17.974L137.986 32.305L141.086 19.457L147.913 20.969L138.283 50.128L138.287 50.129Z" fill="url(#paint8_linear_2_160)"/>
<path d="M142.214 51.799V50.468H141.714V50.29H142.914V50.468H142.414V51.799H142.214Z" fill="black"/>
<path d="M143.111 51.799V50.29H143.411L143.768 51.358C143.801 51.4573 143.825 51.5317 143.84 51.581C143.857 51.5263 143.884 51.4457 143.92 51.339L144.281 50.289H144.55V51.798H144.358V50.536L143.92 51.799H143.74L143.304 50.514V51.799H143.111Z" fill="black"/>
<defs>
<linearGradient id="paint0_linear_2_160" x1="236.349" y1="410.388" x2="228.06" y2="402.848" gradientUnits="userSpaceOnUse">
<stop stop-color="#0070B6"/>
<stop offset="1" stop-color="#1D2C5E"/>
</linearGradient>
<linearGradient id="paint1_linear_2_160" x1="304.868" y1="388.98" x2="312.179" y2="381.501" gradientUnits="userSpaceOnUse">
<stop stop-color="#0070B6"/>
<stop offset="1" stop-color="#1D2C5E"/>
</linearGradient>
<linearGradient id="paint2_linear_2_160" x1="273.753" y1="401.671" x2="270.041" y2="396.638" gradientUnits="userSpaceOnUse">
<stop stop-color="#0070B6"/>
<stop offset="1" stop-color="#1D2C5E"/>
</linearGradient>
<linearGradient id="paint3_linear_2_160" x1="351.376" y1="400.35" x2="349.304" y2="394.506" gradientUnits="userSpaceOnUse">
<stop stop-color="#125D9E"/>
<stop offset="1" stop-color="#1D2C5E"/>
</linearGradient>
<linearGradient id="paint4_linear_2_160" x1="327.787" y1="391.067" x2="319.266" y2="391.869" gradientUnits="userSpaceOnUse">
<stop stop-color="#125D9E"/>
<stop offset="1" stop-color="#1D2C5E"/>
</linearGradient>
<linearGradient id="paint5_linear_2_160" x1="264.703" y1="410.612" x2="267.279" y2="421.246" gradientUnits="userSpaceOnUse">
<stop stop-color="#105FA1"/>
<stop offset="1" stop-color="#1D2C5E"/>
</linearGradient>
<linearGradient id="paint6_linear_2_160" x1="242.379" y1="406.716" x2="248.731" y2="420.216" gradientUnits="userSpaceOnUse">
<stop stop-color="#105FA1"/>
<stop offset="1" stop-color="#1D2C5E"/>
</linearGradient>
<linearGradient id="paint7_linear_2_160" x1="337.459" y1="-552.024" x2="345.779" y2="-552.024" gradientUnits="userSpaceOnUse">
<stop stop-color="#3C5AA6"/>
<stop offset="0.933" stop-color="#2B73B9"/>
<stop offset="1" stop-color="#2A75BB"/>
</linearGradient>
<linearGradient id="paint8_linear_2_160" x1="318.444" y1="-547.347" x2="467.527" y2="-547.347" gradientUnits="userSpaceOnUse">
<stop stop-color="#3C5AA6"/>
<stop offset="0.933" stop-color="#2B73B9"/>
<stop offset="1" stop-color="#2A75BB"/>
</linearGradient>
</defs>
</svg>
