<svg width="152" height="38" viewBox="0 0 152 38" fill="none" xmlns="http://www.w3.org/2000/svg">
<path d="M20.37 29.65H4.06C2.98346 29.6492 1.95125 29.2212 1.19002 28.46C0.428798 27.6987 0.000794589 26.6665 0 25.59L0 12.59C0.000794589 11.5135 0.428798 10.4812 1.19002 9.72002C1.95125 8.9588 2.98346 8.53079 4.06 8.53H20.37V12.75H4.22V25.42H20.37V29.65Z" fill="white"/>
<path d="M40.99 29.65H28.65C27.5735 29.6492 26.5412 29.2212 25.78 28.46C25.0188 27.6987 24.5908 26.6665 24.59 25.59V12.59C24.5908 11.5135 25.0188 10.4812 25.78 9.72002C26.5412 8.9588 27.5735 8.53079 28.65 8.53H40.98C42.0565 8.53079 43.0888 8.9588 43.85 9.72002C44.6112 10.4812 45.0392 11.5135 45.04 12.59V25.59C45.0408 26.1225 44.9366 26.65 44.7335 27.1423C44.5304 27.6346 44.2323 28.082 43.8561 28.4591C43.48 28.8361 43.0333 29.1353 42.5416 29.3397C42.0498 29.544 41.5225 29.6495 40.99 29.65ZM28.82 25.43H40.83V12.75H28.82V25.43Z" fill="white"/>
<path d="M86.41 37.62H82.19V12.59C82.1908 11.5135 82.6188 10.4812 83.38 9.72002C84.1413 8.9588 85.1735 8.53079 86.25 8.53H98.71C99.7865 8.53079 100.819 8.9588 101.58 9.72002C102.341 10.4812 102.769 11.5135 102.77 12.59V25.59C102.769 26.6665 102.341 27.6987 101.58 28.46C100.819 29.2212 99.7865 29.6492 98.71 29.65H90.55V25.43H98.55V12.75H86.41V37.62Z" fill="white"/>
<path d="M151.99 8.45H147.93V29.57H151.99V8.45Z" fill="white"/>
<path d="M151.99 0.379999H147.93V4.44H151.99V0.379999Z" fill="white"/>
<path d="M77.97 29.6H73.75V12.75H53.49V29.52H49.27V12.59C49.2708 11.5135 49.6988 10.4812 50.46 9.72002C51.2213 8.9588 52.2535 8.53079 53.33 8.53H73.91C74.9865 8.53079 76.0188 8.9588 76.78 9.72002C77.5412 10.4812 77.9692 11.5135 77.97 12.59V29.6Z" fill="white"/>
<path d="M65.73 16.94H61.51V29.57H65.73V16.94Z" fill="white"/>
<path d="M135.84 25.43V12.71H144.13V8.48H135.84V0.379999H131.62V24.93C131.62 27.83 133.44 29.65 135.68 29.65H144.17V25.43H135.84Z" fill="white"/>
<path d="M127.4 25.43H107.03V29.65H127.4V25.43Z" fill="white"/>
<path d="M127.4 8.45H107.03V12.67H127.4V8.45Z" fill="white"/>
<path d="M127.4 16.94H107.03V21.16H127.4V16.94Z" fill="white"/>
</svg>
